# This file uses centimeters as units for non-parametric coordinates.

v 129.614700 -2.506200 574.029480
v 1302.190552 -2.506200 574.029724
v 1302.190552 -2.506200 -643.361694
v -254.356705 -2.506200 574.029419
v -1428.519775 -2.506200 574.029297
v -63.341999 -2.506200 -643.836426
v -1428.519775 -2.506200 -644.311401
v -1423.966553 1.122412 -639.756775
v -1423.966064 1.122412 569.475525
v -1423.966064 -3.379888 569.475525
v -1423.966553 -3.379888 -639.756775
v 1297.636841 1.122412 569.476013
v 1297.635986 1.122412 -638.808716
v 1297.635986 -3.379888 -638.808716
v 1297.636841 -3.379888 569.476013
v 12.162400 1.122412 -639.256592
v 12.162400 -3.379888 -639.256470
v -1428.519775 5.624612 574.029297
v -1428.519775 5.624612 -644.311401
v 1302.190552 5.624612 -643.361694
v 1302.190552 5.624612 574.029724
v 12.082900 5.624612 -643.810425
v -1428.519775 1.122412 -644.311401
v -1428.519775 -3.379888 -644.311401
v -1428.519775 -3.379888 574.029297
v -1428.519775 1.122412 574.029297
v 1302.190552 1.122412 574.029724
v 1302.190552 -3.379888 574.029724
v 1302.190552 -3.379888 -643.361694
v 1302.190552 1.122412 -643.361694
v -138.697998 1.122412 -643.862793
v -138.697998 -3.379888 -643.862793
v -138.697998 5.624612 -643.862793
v 12.082900 -3.379888 -643.810303
v -138.618500 -3.379888 -639.309021
v -138.618500 1.122412 -639.309082
v 12.082900 1.122412 -643.810425
v -1427.345947 419.963226 -636.975525
v -1427.163330 419.963226 570.746216
v -1427.163330 415.460907 570.746216
v -1427.345947 415.460907 -636.975525
v 1297.636841 419.963226 570.746704
v 1297.636597 419.963226 42.264301
v 1297.636597 415.460907 42.448002
v 1297.636841 415.460907 570.746704
v -1431.717041 424.465424 575.299988
v -1431.898682 424.465424 -641.530029
v 1302.190430 424.465424 42.048401
v 1302.190552 424.465424 575.300415
v -1431.898682 419.963226 -641.530029
v -1431.898682 415.460907 -641.530029
v -1431.717041 415.460907 575.299988
v -1431.717041 419.963226 575.299988
v 1302.190430 419.963226 -110.069000
v 1302.190552 415.460907 -110.069099
v 1302.190552 415.460907 -641.602417
v 1302.190552 419.963226 -641.602417
v 1302.190552 415.460907 575.300415
v 1302.190552 419.963226 575.300415
v 1302.190552 424.465424 -641.602417
v 1302.190430 424.465424 -110.069000
v 1302.190674 415.460907 42.415798
v 1297.635986 415.460907 -637.049377
v 1297.635986 419.963226 -637.049377
v 1297.636475 415.460907 -110.148399
v 1297.636475 419.963226 -110.148399
v 1302.190430 419.963226 42.232101
v 1302.220947 415.530304 -645.431030
v 900.171326 415.530304 -645.431030
v 900.171326 415.530304 -301.763214
v 1302.220947 415.530304 -301.763214
v -1030.174805 415.530304 -301.763214
v -1030.174805 415.530304 -645.431030
v -1432.224365 415.530304 -645.431030
v -1432.224365 415.530304 -301.763214
v -1030.174805 415.530304 230.517395
v -1432.224365 415.530304 230.517395
v 900.171326 415.530304 230.517395
v 900.171326 415.530304 574.185181
v 1302.220947 415.530304 574.185181
v 1302.220947 415.530304 230.517395
v -1432.224365 415.530304 574.185181
v -1030.174805 415.530304 574.185181
vt 2.621700 5.952500
vt -1.890500 5.952500
vt -1.890500 1.267900
vt 4.099200 5.952500
vt 8.617500 5.952500
vt 3.364200 1.266100
vt 8.617500 1.264200
vt 8.333000 1.198600
vt 14.896000 1.198600
vt 14.896000 1.260500
vt 8.333000 1.260500
vt -12.996200 1.198600
vt -6.438300 1.198600
vt -6.438300 1.260500
vt -12.996200 1.260500
vt 0.538500 1.198600
vt 0.538500 1.260500
vt -27.767700 1.198600
vt -27.767700 1.260500
vt 14.920800 1.136700
vt 8.308300 1.136700
vt -6.413600 1.136700
vt -13.021000 1.136700
vt 0.538900 1.136700
vt -6.463100 1.136700
vt -12.971500 1.136700
vt -27.792400 1.136700
vt 8.308300 1.074800
vt 8.308300 1.012800
vt 14.920800 1.012800
vt 14.920800 1.074800
vt -13.021000 1.074800
vt -13.021000 1.012800
vt -6.413600 1.012800
vt -6.413600 1.074800
vt 1.357300 1.074800
vt 1.357300 1.012800
vt 8.357700 1.012800
vt 8.357700 1.074800
vt -27.792400 1.074800
vt -27.792400 1.012800
vt -12.971500 1.012800
vt -12.971500 1.074800
vt 8.357700 1.136700
vt 1.357300 1.136700
vt 14.920800 1.273400
vt 8.308300 1.273400
vt -6.413600 1.273400
vt -13.021000 1.273400
vt 0.538900 1.273300
vt -6.463100 1.272000
vt -12.971500 1.273400
vt -27.792400 1.273400
vt 1.356800 1.260500
vt 1.356800 1.198600
vt 8.357700 1.274700
vt 1.357300 1.273500
vt -6.463100 1.074800
vt -6.463100 1.012800
vt 0.538900 1.012800
vt 0.538900 1.074800
vt 18.462900 1.096100
vt 22.150400 1.096100
vt 22.150400 1.120600
vt 18.462900 1.120600
vt 6.479000 1.096100
vt 8.086700 1.096100
vt 8.086100 1.120600
vt 6.479000 1.120600
vt -1.820400 1.096100
vt -1.820400 1.120600
vt 22.164301 1.071600
vt 18.449100 1.071600
vt 8.087300 1.071600
vt 6.465100 1.071600
vt 6.492900 1.071600
vt -1.834300 1.071600
vt 18.449100 1.047100
vt 18.449100 1.022600
vt 22.164301 1.022600
vt 22.164301 1.047100
vt 8.551200 1.047100
vt 8.551200 1.022600
vt 10.177500 1.022600
vt 10.177500 1.047100
vt 11.029500 1.047100
vt 11.029500 1.022600
vt 18.476801 1.022600
vt 18.476801 1.047100
vt -1.834300 1.047100
vt -1.834300 1.022600
vt 6.492900 1.022600
vt 6.492900 1.047100
vt 10.177500 1.071600
vt 8.551200 1.071600
vt 18.476801 1.071600
vt 11.029500 1.071600
vt 22.164301 1.125700
vt 18.449100 1.125700
vt 8.086200 1.125700
vt 6.465100 1.125700
vt 6.492900 1.125700
vt -1.834300 1.125700
vt 11.043200 1.120600
vt 11.043200 1.096100
vt 11.041900 1.102900
vt 11.029500 1.078400
vt 18.476801 1.126200
vt 11.030800 1.122900
vt 11.043200 1.117800
vt 10.163600 1.096100
vt 10.163600 1.120600
vt 8.551500 1.120600
vt 8.551500 1.096100
vt 10.177500 1.125700
vt 8.551200 1.125700
vt 6.465100 1.047100
vt 6.465100 1.022600
vt 8.086200 1.022600
vt 8.086800 1.047100
vt 6.718900 3.185200
vt 5.731000 3.185200
vt 5.731000 2.327400
vt 6.718900 2.327400
vt 0.987900 2.327400
vt 0.987900 3.185200
vt 0.000000 3.185200
vt 0.000000 2.327400
vt 0.987900 1.017300
vt 0.000000 1.017300
vt 5.731000 1.017300
vt 5.731000 0.140900
vt 6.718900 0.140900
vt 6.718900 1.017300
vt 0.000000 0.140900
vt 0.987900 0.140900
vn 0.000000 1.000000 -0.000000
vn 0.000000 1.000000 -0.000000
vn 0.000000 1.000000 -0.000000
vn 0.000000 1.000000 0.000000
vn 0.000000 1.000000 0.000000
vn 0.000000 1.000000 0.000000
vn 0.000000 1.000000 0.000000
vn 0.000000 1.000000 0.000000
vn 0.000000 1.000000 0.000000
vn 0.000000 1.000000 0.000000
vn 0.000000 1.000000 0.000000
vn 1.000000 0.000000 -0.000000
vn 1.000000 0.000000 -0.000000
vn 1.000000 0.000000 -0.000000
vn 1.000000 0.000000 -0.000000
vn -1.000000 0.000000 0.000000
vn -1.000000 0.000000 0.000000
vn -1.000000 0.000000 0.000000
vn -1.000000 0.000000 0.000000
vn -0.000300 0.000000 1.000000
vn -0.000300 0.000000 1.000000
vn -0.000300 0.000000 1.000000
vn -0.000300 0.000000 1.000000
vn 0.000000 0.000000 -1.000000
vn 0.000000 0.000000 -1.000000
vn 0.000000 0.000000 -1.000000
vn 0.000000 0.000000 -1.000000
vn 0.405176 0.819552 -0.405176
vn 0.405176 0.819552 -0.405176
vn 0.405093 0.819585 0.405193
vn 0.405093 0.819585 0.405193
vn -0.405193 0.819585 0.405093
vn -0.405193 0.819585 0.405093
vn -0.405176 0.819552 -0.405176
vn -0.405176 0.819552 -0.405176
vn -0.000200 0.711095 0.703095
vn -0.000200 0.711095 0.703095
vn -0.405193 0.819585 0.405093
vn -0.405193 0.819585 0.405093
vn -0.405176 0.819552 -0.405176
vn -0.405176 0.819552 -0.405176
vn 0.405176 0.819552 -0.405176
vn 0.405176 0.819552 -0.405176
vn -1.000000 0.000000 0.000000
vn -1.000000 0.000000 0.000000
vn -1.000000 0.000000 0.000000
vn -1.000000 0.000000 0.000000
vn 1.000000 0.000000 0.000000
vn 1.000000 0.000000 0.000000
vn 1.000000 0.000000 0.000000
vn 1.000000 0.000000 0.000000
vn 0.000300 0.000000 -1.000000
vn 0.000300 0.000000 -1.000000
vn 0.000300 0.000000 -1.000000
vn 0.000300 0.000000 -1.000000
vn 0.000000 0.000000 1.000000
vn 0.000000 0.000000 1.000000
vn 0.000000 0.000000 1.000000
vn 0.000000 0.000000 1.000000
vn -1.000000 0.000000 0.000000
vn -1.000000 0.000000 0.000000
vn -1.000000 0.000000 0.000000
vn -1.000000 0.000000 0.000000
vn 1.000000 0.000000 0.000000
vn 1.000000 0.000000 0.000000
vn 1.000000 0.000000 0.000000
vn 1.000000 0.000000 0.000000
vn 0.000300 0.000000 -1.000000
vn 0.000300 0.000000 -1.000000
vn 0.000300 0.000000 -1.000000
vn 0.000300 0.000000 -1.000000
vn 0.000000 0.000000 1.000000
vn 0.000000 0.000000 1.000000
vn 0.000000 0.000000 1.000000
vn 0.000000 0.000000 1.000000
vn 0.000000 -1.000000 0.000000
vn 0.000000 -1.000000 0.000000
vn 0.000000 -1.000000 0.000000
vn 0.000000 -1.000000 0.000000
vn 0.000000 -1.000000 0.000000
vn 0.000000 -1.000000 0.000000
vn 0.000000 -1.000000 0.000000
vn 0.000000 -1.000000 0.000000
vn 0.000000 -1.000000 0.000000
vn 0.000000 -1.000000 0.000000
vn 0.000000 -1.000000 0.000000
vn 0.000000 -1.000000 0.000000
vn 0.000000 -1.000000 0.000000
vn 0.000000 -1.000000 0.000000
vn 0.000000 -1.000000 0.000000
vn 0.000000 -1.000000 0.000000
vn -0.000300 0.000000 1.000000
vn -0.000300 0.000000 1.000000
vn -0.000300 0.000000 1.000000
vn -0.000300 0.000000 1.000000
vn 0.405093 0.819585 0.405193
vn 0.405093 0.819585 0.405193
vn -0.000200 0.711095 0.703095
vn -0.000200 0.711095 0.703095
vn 0.000000 -1.000000 0.000000
vn 0.000000 -1.000000 0.000000
vn 0.000000 -1.000000 0.000000
vn 0.000000 -1.000000 0.000000
vn 0.000300 0.000000 -1.000000
vn 0.000300 0.000000 -1.000000
vn 0.000300 0.000000 -1.000000
vn 0.000300 0.000000 -1.000000
vn 0.000300 0.000000 -1.000000
vn 0.000300 0.000000 -1.000000
vn 0.000300 0.000000 -1.000000
vn 0.000300 0.000000 -1.000000
vn 1.000000 0.000000 -0.000151
vn 1.000000 0.000000 -0.000151
vn 1.000000 0.000000 -0.000151
vn 1.000000 0.000000 -0.000151
vn -1.000000 0.000000 0.000000
vn -1.000000 0.000000 0.000000
vn -1.000000 0.000000 0.000000
vn -1.000000 0.000000 0.000000
vn 0.000000 0.000000 -1.000000
vn 0.000000 0.000000 -1.000000
vn 0.000000 0.000000 -1.000000
vn 0.000000 0.000000 -1.000000
vn 0.405093 0.819585 -0.405193
vn 0.405093 0.819585 -0.405193
vn 0.405292 0.819585 0.404992
vn 0.405176 0.819552 0.405176
vn -0.703096 0.711095 0.000000
vn -0.703096 0.711095 0.000000
vn -0.405176 0.819552 -0.405176
vn -0.405176 0.819552 -0.405176
vn -0.405176 0.819552 -0.405176
vn -0.405176 0.819552 -0.405176
vn 0.405093 0.819585 -0.405193
vn 0.405093 0.819585 -0.405193
vn -1.000000 0.000000 0.000100
vn -1.000000 0.000000 0.000100
vn -1.000000 0.000000 0.000100
vn -1.000000 0.000000 0.000100
vn 1.000000 0.000000 0.000000
vn 1.000000 0.000000 0.000000
vn 1.000000 0.000000 0.000000
vn 1.000000 0.000000 0.000000
vn 0.000000 0.000000 -1.000000
vn 0.000000 0.000000 -1.000000
vn 0.000000 0.000000 -1.000000
vn 0.000000 0.000000 -1.000000
vn 0.000000 0.000000 1.000000
vn 0.000000 0.000000 1.000000
vn 0.000000 0.000000 1.000000
vn 0.000000 0.000000 1.000000
vn -1.000000 0.000000 0.000100
vn -1.000000 0.000000 0.000100
vn -1.000000 0.000000 0.000100
vn -1.000000 0.000000 0.000100
vn 1.000000 0.000000 0.000000
vn 1.000000 0.000000 0.000000
vn 1.000000 0.000000 0.000000
vn 1.000000 0.000000 0.000000
vn 0.000000 0.000000 -1.000000
vn 0.000000 0.000000 -1.000000
vn 0.000000 0.000000 -1.000000
vn 0.000000 0.000000 -1.000000
vn 0.000000 0.000000 1.000000
vn 0.000000 0.000000 1.000000
vn 0.000000 0.000000 1.000000
vn 0.000000 0.000000 1.000000
vn 0.000000 -1.000000 0.000000
vn 0.000000 -1.000000 0.000000
vn 0.000000 -1.000000 0.000000
vn 0.000000 -1.000000 0.000000
vn 0.000000 -1.000000 0.000000
vn 0.000000 -1.000000 0.000000
vn 0.000000 -1.000000 0.000000
vn 0.000000 -1.000000 0.000000
vn 0.000000 -1.000000 0.000000
vn 0.000000 -1.000000 0.000000
vn 0.000000 -1.000000 0.000000
vn 0.000000 -1.000000 0.000000
vn 0.000000 0.000000 1.000000
vn 0.000000 0.000000 1.000000
vn 0.000000 0.000000 1.000000
vn 0.000000 0.000000 1.000000
vn 0.405292 0.819585 0.404992
vn -0.405093 0.819585 0.405193
vn -0.405193 0.819585 0.405093
vn 0.405176 0.819552 0.405176
vn 0.000000 -1.000000 0.000000
vn 0.000000 -1.000000 0.000000
vn 0.000000 -1.000000 0.000000
vn 0.000000 -1.000000 0.000000
vn -1.000000 0.000000 0.000000
vn -1.000000 0.000000 0.000000
vn -1.000000 0.000000 0.000000
vn -1.000000 0.000000 0.000000
vn -0.703096 0.711095 0.000000
vn -0.405193 0.819585 0.405093
vn -0.405093 0.819585 0.405193
vn -0.703096 0.711095 0.000000
vn 0.000000 -1.000000 0.000000
vn 0.000000 -1.000000 0.000000
vn 0.000000 -1.000000 0.000000
vn 0.000000 -1.000000 0.000000
vn 1.000000 0.000000 0.000000
vn 1.000000 0.000000 0.000000
vn 1.000000 0.000000 0.000000
vn 1.000000 0.000000 0.000000
vn 1.000000 0.000000 0.000000
vn 1.000000 0.000000 0.000000
vn 1.000000 0.000000 0.000000
vn 1.000000 0.000000 0.000000
vn 0.000000 1.000000 0.000000
vn 0.000000 1.000000 0.000000
vn 0.000000 1.000000 0.000000
vn 0.000000 1.000000 0.000000
vn 0.000000 1.000000 0.000000
vn 0.000000 1.000000 0.000000
vn 0.000000 1.000000 0.000000
vn 0.000000 1.000000 0.000000
vn 0.000000 1.000000 0.000000
vn 0.000000 1.000000 0.000000
vn 0.000000 1.000000 0.000000
vn 0.000000 1.000000 0.000000
vn 0.000000 1.000000 0.000000
vn 0.000000 1.000000 0.000000
vn 0.000000 1.000000 0.000000
vn 0.000000 1.000000 0.000000
vn 0.000000 1.000000 0.000000
vn 0.000000 1.000000 0.000000
vn 0.000000 1.000000 0.000000
vn 0.000000 1.000000 0.000000
vn 0.000000 1.000000 0.000000
vn 0.000000 1.000000 0.000000
vn 0.000000 1.000000 0.000000
vn 0.000000 1.000000 0.000000
vn 0.000000 1.000000 0.000000
vn 0.000000 1.000000 0.000000
vn 0.000000 1.000000 0.000000
vn 0.000000 1.000000 0.000000
vn 0.000000 1.000000 0.000000
vn 0.000000 1.000000 0.000000
vn 0.000000 1.000000 0.000000
vn 0.000000 1.000000 0.000000
f 4/4/1 1/1/2 3/3/3
f 1/1/2 2/2/4 3/3/3
f 5/5/5 4/4/6 6/6/7
f 6/6/7 4/4/6 3/3/8
f 7/7/9 5/5/10 6/6/11
f 8/8/12 9/9/13 10/10/14 11/11/15
f 12/12/16 13/13/17 14/14/18 15/15/19
f 13/13/20 16/16/21 17/17/22 14/14/23
f 9/18/24 12/12/25 15/15/26 10/19/27
f 18/20/28 9/9/29 8/8/30 19/21/31
f 20/22/32 13/13/33 12/12/34 21/23/35
f 22/24/36 16/16/37 13/13/38 20/25/39
f 21/26/40 12/12/41 9/18/42 18/27/43
f 23/28/44 24/29/45 25/30/46 26/31/47
f 27/32/48 28/33/49 29/34/50 30/35/51
f 31/36/52 32/37/53 24/38/54 23/39/55
f 26/40/56 25/41/57 28/42/58 27/43/59
f 18/20/60 19/21/61 23/28/62 26/31/63
f 20/22/64 21/23/65 27/32/66 30/35/67
f 19/44/68 33/45/69 31/36/70 23/39/71
f 21/26/72 18/27/73 26/40/74 27/43/75
f 10/10/76 25/46/77 24/47/78 11/11/79
f 14/14/80 29/48/81 28/49/82 15/15/83
f 17/17/84 34/50/85 29/51/86 14/14/87
f 15/15/88 28/52/89 25/53/90 10/19/91
f 8/8/92 11/11/93 35/54/94 36/55/95
f 19/44/96 8/8/97 36/55/98 33/45/99
f 11/11/100 24/56/101 32/57/102 35/54/103
f 30/58/104 29/59/105 34/60/106 37/61/107
f 20/25/108 30/58/109 37/61/110 22/24/111
f 38/62/112 39/63/113 40/64/114 41/65/115
f 42/66/116 43/67/117 44/68/118 45/69/119
f 39/70/120 42/66/121 45/69/122 40/71/123
f 46/72/124 39/63/125 38/62/126 47/73/127
f 48/74/128 43/67/129 42/66/130 49/75/131
f 49/76/132 42/66/133 39/70/134 46/77/135
f 50/78/136 51/79/137 52/80/138 53/81/139
f 54/82/140 55/83/141 56/84/142 57/85/143
f 57/86/144 56/87/145 51/88/146 50/89/147
f 53/90/148 52/91/149 58/92/150 59/93/151
f 46/72/152 47/73/153 50/78/154 53/81/155
f 60/94/156 61/95/157 54/82/158 57/85/159
f 47/96/160 60/97/161 57/86/162 50/89/163
f 49/76/164 46/77/165 53/90/166 59/93/167
f 40/64/168 52/98/169 51/99/170 41/65/171
f 45/69/172 44/68/173 62/100/174 58/101/175
f 45/69/176 58/102/177 52/103/178 40/71/179
f 41/65/180 63/104/181 64/105/182 38/62/183
f 38/62/184 64/106/185 60/107/186 47/96/187
f 51/108/188 56/109/189 63/110/190 41/65/191
f 64/111/192 63/112/193 65/113/194 66/114/195
f 61/95/196 60/94/197 64/111/198 66/114/199
f 63/112/200 56/115/201 55/116/202 65/113/203
f 59/117/204 58/118/205 62/119/206 67/120/207
f 49/75/208 59/117/209 67/120/210 48/74/211
f 68/121/212 69/122/213 70/123/214 71/124/215
f 72/125/216 73/126/217 74/127/218 75/128/219
f 76/129/220 72/125/221 75/128/222 77/130/223
f 69/122/224 73/126/225 72/125/226 70/123/227
f 78/131/228 79/132/229 80/133/230 81/134/231
f 70/123/232 78/131/233 81/134/234 71/124/235
f 82/135/236 83/136/237 76/129/238 77/130/239
f 83/136/240 79/132/241 78/131/242 76/129/243
